<svg width="352" height="318" viewBox="0 0 352 318" fill="none" xmlns="http://www.w3.org/2000/svg">
<g filter="url(#filter0_dddd_224_870)">
<path fill-rule="evenodd" clip-rule="evenodd" d="M339 261.867C339 266.347 339 268.588 338.128 270.299C337.361 271.804 336.137 273.028 334.632 273.795C332.921 274.667 330.68 274.667 326.2 274.667H25.8C21.3196 274.667 19.0794 274.667 17.3681 273.795C15.8628 273.028 14.6389 271.804 13.8719 270.299C13 268.588 13 266.347 13 261.867V64.1841C13 61.6795 13 60.4272 13.3452 59.2905C13.6508 58.2842 14.1518 57.348 14.8196 56.5355C15.5739 55.6178 16.6159 54.9231 18.6998 53.5338L91.2754 5.15015C92.4739 4.3511 93.0732 3.95157 93.7216 3.66855C94.2971 3.41733 94.9001 3.23474 95.5183 3.12454C96.2148 3.0004 96.935 3.0004 98.3755 3.0004H253.624C255.065 3.0004 255.785 3.0004 256.482 3.12454C257.1 3.23474 257.703 3.41733 258.278 3.66855C258.927 3.95157 259.526 4.3511 260.725 5.15015L333.3 53.5338C335.384 54.9231 336.426 55.6178 337.18 56.5355C337.848 57.348 338.349 58.2842 338.655 59.2905C339 60.4272 339 61.6795 339 64.1841V261.867Z" fill="url(#paint0_linear_224_870)"/>
<path fill-rule="evenodd" clip-rule="evenodd" d="M339 261.867C339 266.347 339 268.588 338.128 270.299C337.361 271.804 336.137 273.028 334.632 273.795C332.921 274.667 330.68 274.667 326.2 274.667H25.8C21.3196 274.667 19.0794 274.667 17.3681 273.795C15.8628 273.028 14.6389 271.804 13.8719 270.299C13 268.588 13 266.347 13 261.867V64.1841C13 61.6795 13 60.4272 13.3452 59.2905C13.6508 58.2842 14.1518 57.348 14.8196 56.5355C15.5739 55.6178 16.6159 54.9231 18.6998 53.5338L91.2754 5.15015C92.4739 4.3511 93.0732 3.95157 93.7216 3.66855C94.2971 3.41733 94.9001 3.23474 95.5183 3.12454C96.2148 3.0004 96.935 3.0004 98.3755 3.0004H253.624C255.065 3.0004 255.785 3.0004 256.482 3.12454C257.1 3.23474 257.703 3.41733 258.278 3.66855C258.927 3.95157 259.526 4.3511 260.725 5.15015L333.3 53.5338C335.384 54.9231 336.426 55.6178 337.18 56.5355C337.848 57.348 338.349 58.2842 338.655 59.2905C339 60.4272 339 61.6795 339 64.1841V261.867Z" fill="url(#paint1_linear_224_870)" fill-opacity="0.2" style="mix-blend-mode:overlay"/>
<path d="M339.5 261.867V261.891C339.5 264.111 339.5 265.808 339.389 267.162C339.278 268.527 339.051 269.588 338.573 270.526C337.759 272.125 336.458 273.426 334.859 274.241C333.921 274.718 332.86 274.945 331.495 275.056C330.141 275.167 328.444 275.167 326.223 275.167H326.2H25.8H25.7767C23.5562 275.167 21.8593 275.167 20.5049 275.056C19.14 274.945 18.079 274.718 17.1411 274.241C15.5417 273.426 14.2414 272.125 13.4264 270.526C12.9486 269.588 12.7222 268.527 12.6107 267.162C12.5 265.808 12.5 264.111 12.5 261.89V261.867V64.1841L12.5 64.0851C12.4999 61.6747 12.4999 60.3533 12.8668 59.1452C13.1915 58.076 13.7238 57.0813 14.4334 56.218C15.2351 55.2426 16.3345 54.5097 18.3403 53.1726L18.4225 53.1178L90.998 4.73413L91.0448 4.70291C92.1992 3.93326 92.8326 3.51105 93.5215 3.2103C94.133 2.94339 94.7737 2.74939 95.4305 2.63229C96.1708 2.50037 96.9322 2.50037 98.3204 2.5004H98.3755H253.624H253.679C255.068 2.50037 255.829 2.50037 256.569 2.63229C257.226 2.74939 257.867 2.94339 258.478 3.2103C259.167 3.51102 259.801 3.93323 260.955 4.70282L261.002 4.73413L333.577 53.1178L333.66 53.1727C335.665 54.5097 336.765 55.2427 337.567 56.218C338.276 57.0813 338.808 58.076 339.133 59.1452C339.5 60.3533 339.5 61.6747 339.5 64.0851V64.1841V261.867Z" stroke="url(#paint2_linear_224_870)"/>
</g>
<path opacity="0.3" fill-rule="evenodd" clip-rule="evenodd" d="M310.022 272.403H41.9778C36.8688 272.403 33.1733 272.401 30.2668 272.164C27.3867 271.929 25.4814 271.473 23.9166 270.676C20.9348 269.157 18.5105 266.732 16.9911 263.75C16.1939 262.186 15.7384 260.28 15.5031 257.4C15.2656 254.494 15.2639 250.798 15.2639 245.689V72.8421C15.2639 67.0311 15.287 64.5973 15.9477 62.4215C16.5531 60.4281 17.5456 58.5736 18.8684 56.9641C20.3122 55.2075 22.3245 53.8382 27.1596 50.6149L88.4556 9.75085C91.2338 7.89868 92.4013 7.13007 93.6435 6.58783C94.7834 6.09018 95.978 5.72849 97.2026 5.51019C98.5369 5.27237 99.9347 5.26428 103.274 5.26428H248.726C252.065 5.26428 253.463 5.27237 254.797 5.51019C256.022 5.72849 257.216 6.09018 258.356 6.58783C259.599 7.13007 260.766 7.89868 263.544 9.75089L324.84 50.6149C329.675 53.8382 331.688 55.2075 333.132 56.9641C334.454 58.5736 335.447 60.4281 336.052 62.4215C336.713 64.5973 336.736 67.0311 336.736 72.8421V245.689C336.736 250.798 336.734 254.494 336.497 257.4C336.262 260.28 335.806 262.186 335.009 263.75C333.489 266.732 331.065 269.157 328.083 270.676C326.519 271.473 324.613 271.929 321.733 272.164C318.827 272.401 315.131 272.403 310.022 272.403ZM337.026 264.778C339 260.904 339 255.832 339 245.689V72.8421C339 67.1721 339 64.3371 338.218 61.7637C337.527 59.4855 336.392 57.366 334.88 55.5267C333.173 53.449 330.814 51.8764 326.096 48.7312L264.8 7.86703C262.087 6.0582 260.73 5.15375 259.262 4.513C257.959 3.94427 256.594 3.53091 255.195 3.28143C253.618 3.0004 251.987 3.0004 248.726 3.0004H103.274C100.013 3.0004 98.382 3.0004 96.8053 3.28143C95.4058 3.53091 94.0406 3.94427 92.7377 4.513C91.27 5.15372 89.9133 6.05817 87.2001 7.867L87.1998 7.86719L25.9037 48.7313C21.186 51.8764 18.8271 53.449 17.1194 55.5267C15.6077 57.366 14.4734 59.4855 13.7815 61.7637C13 64.3371 13 67.1721 13 72.8421V245.689C13 255.832 13 260.904 14.974 264.778C16.7104 268.186 19.481 270.957 22.8888 272.693C26.763 274.667 31.8346 274.667 41.9778 274.667H310.022C320.165 274.667 325.237 274.667 329.111 272.693C332.519 270.957 335.29 268.186 337.026 264.778Z" fill="#5B21B6" fill-opacity="0.5"/>
<defs>
<filter id="filter0_dddd_224_870" x="0" y="0" width="352" height="317.667" filterUnits="userSpaceOnUse" color-interpolation-filters="sRGB">
<feFlood flood-opacity="0" result="BackgroundImageFix"/>
<feColorMatrix in="SourceAlpha" type="matrix" values="0 0 0 0 0 0 0 0 0 0 0 0 0 0 0 0 0 0 127 0" result="hardAlpha"/>
<feOffset dy="2"/>
<feGaussianBlur stdDeviation="2"/>
<feColorMatrix type="matrix" values="0 0 0 0 0.117647 0 0 0 0 0.160784 0 0 0 0 0.231373 0 0 0 0.08 0"/>
<feBlend mode="normal" in2="BackgroundImageFix" result="effect1_dropShadow_224_870"/>
<feColorMatrix in="SourceAlpha" type="matrix" values="0 0 0 0 0 0 0 0 0 0 0 0 0 0 0 0 0 0 127 0" result="hardAlpha"/>
<feOffset dy="8"/>
<feGaussianBlur stdDeviation="4"/>
<feColorMatrix type="matrix" values="0 0 0 0 0.117647 0 0 0 0 0.160784 0 0 0 0 0.231373 0 0 0 0.07 0"/>
<feBlend mode="normal" in2="effect1_dropShadow_224_870" result="effect2_dropShadow_224_870"/>
<feColorMatrix in="SourceAlpha" type="matrix" values="0 0 0 0 0 0 0 0 0 0 0 0 0 0 0 0 0 0 127 0" result="hardAlpha"/>
<feOffset dy="17"/>
<feGaussianBlur stdDeviation="5"/>
<feColorMatrix type="matrix" values="0 0 0 0 0.117647 0 0 0 0 0.160784 0 0 0 0 0.231373 0 0 0 0.04 0"/>
<feBlend mode="normal" in2="effect2_dropShadow_224_870" result="effect3_dropShadow_224_870"/>
<feColorMatrix in="SourceAlpha" type="matrix" values="0 0 0 0 0 0 0 0 0 0 0 0 0 0 0 0 0 0 127 0" result="hardAlpha"/>
<feOffset dy="30"/>
<feGaussianBlur stdDeviation="6"/>
<feColorMatrix type="matrix" values="0 0 0 0 0.117647 0 0 0 0 0.160784 0 0 0 0 0.231373 0 0 0 0.01 0"/>
<feBlend mode="normal" in2="effect3_dropShadow_224_870" result="effect4_dropShadow_224_870"/>
<feBlend mode="normal" in="SourceGraphic" in2="effect4_dropShadow_224_870" result="shape"/>
</filter>
<linearGradient id="paint0_linear_224_870" x1="108.083" y1="224.861" x2="239.389" y2="61.8615" gradientUnits="userSpaceOnUse">
<stop stop-color="#A78BFA"/>
<stop offset="1" stop-color="#EEA1D6"/>
</linearGradient>
<linearGradient id="paint1_linear_224_870" x1="176" y1="3.0004" x2="176" y2="133.174" gradientUnits="userSpaceOnUse">
<stop offset="0.356522" stop-color="#1F0548" stop-opacity="0"/>
<stop offset="0.569565" stop-color="#1F0548"/>
</linearGradient>
<linearGradient id="paint2_linear_224_870" x1="176" y1="274.667" x2="176" y2="3.0004" gradientUnits="userSpaceOnUse">
<stop stop-color="#475569" stop-opacity="0.06"/>
<stop offset="1" stop-color="#475569" stop-opacity="0"/>
</linearGradient>
</defs>
</svg>
