<svg width="28" height="28" viewBox="0 0 28 28" fill="none" xmlns="http://www.w3.org/2000/svg">
<path fill-rule="evenodd" clip-rule="evenodd" d="M17.9375 23.4501C17.7307 23.4502 17.5259 23.4095 17.3349 23.3302C17.1439 23.2509 16.9705 23.1346 16.8245 22.9881L8.94953 15.1131C8.80322 14.9669 8.68716 14.7932 8.60798 14.6021C8.52879 14.411 8.48804 14.2061 8.48804 13.9992C8.48804 13.7924 8.52879 13.5875 8.60798 13.3964C8.68716 13.2053 8.80322 13.0316 8.94953 12.8854L16.8245 5.01036C16.9696 4.85902 17.1435 4.73817 17.3359 4.65491C17.5284 4.57164 17.7355 4.52764 17.9451 4.52547C18.1548 4.52331 18.3628 4.56303 18.5569 4.64231C18.751 4.72158 18.9273 4.83882 19.0755 4.98714C19.2237 5.13545 19.3408 5.31187 19.4199 5.50604C19.4991 5.70021 19.5386 5.90822 19.5363 6.11788C19.534 6.32754 19.4898 6.53462 19.4064 6.72699C19.323 6.91935 19.202 7.09312 19.0505 7.23812L12.2903 14.0001L19.0505 20.7604C19.2711 20.9805 19.4214 21.2612 19.4824 21.5668C19.5434 21.8725 19.5124 22.1893 19.3932 22.4773C19.2741 22.7653 19.0721 23.0115 18.813 23.1846C18.5539 23.3578 18.2492 23.4502 17.9375 23.4501Z" fill="white"/>
</svg>
