<svg width="24" height="25" viewBox="0 0 24 25" fill="none" xmlns="http://www.w3.org/2000/svg">
<path fill-rule="evenodd" clip-rule="evenodd" d="M23.723 11.4402L21.686 8.66019C21.5746 8.50809 21.4289 8.38438 21.2607 8.29911C21.0925 8.21384 20.9066 8.1694 20.718 8.1694C20.5295 8.1694 20.3436 8.21384 20.1754 8.29911C20.0072 8.38438 19.8615 8.50809 19.75 8.66019L17.713 11.4402C17.133 12.2332 17.699 13.3492 18.681 13.3492H19.561C19.4292 14.5244 19.0229 15.6521 18.375 16.6414C17.727 17.6306 16.8556 18.4537 15.831 19.0442C13.53 20.3782 10.581 20.3782 8.27804 19.0442C8.02573 18.9011 7.72712 18.8635 7.44721 18.9395C7.16729 19.0155 6.92873 19.199 6.78344 19.4501C6.63814 19.7011 6.59788 19.9994 6.67141 20.2799C6.74493 20.5605 6.9263 20.8007 7.17604 20.9482C8.65903 21.8073 10.3422 22.2605 12.056 22.2622C13.7691 22.2603 15.4515 21.8075 16.934 20.9492C18.4153 20.0913 19.6461 18.8604 20.504 17.3792C21.213 16.144 21.6424 14.7683 21.762 13.3492H22.755C22.9769 13.3493 23.1944 13.2879 23.3835 13.1718C23.5725 13.0558 23.7257 12.8896 23.826 12.6917C23.9263 12.4938 23.9698 12.272 23.9516 12.0509C23.9334 11.8298 23.8543 11.618 23.723 11.4392M5.54004 11.6522H4.54804C4.66493 10.62 4.99235 9.62279 5.51004 8.7222C6.17583 7.57468 7.13004 6.62116 8.27804 5.9562C10.58 4.6242 13.529 4.6242 15.832 5.9562C16.0847 6.10233 16.385 6.14213 16.6669 6.06683C16.9489 5.99153 17.1894 5.80731 17.3355 5.5547C17.4817 5.30208 17.5215 5.00175 17.4462 4.71979C17.3709 4.43783 17.1867 4.19733 16.934 4.0512C13.962 2.3332 10.147 2.3332 7.17604 4.0512C5.69501 4.90943 4.46427 6.14017 3.60604 7.62119C2.89816 8.85686 2.46881 10.2323 2.34804 11.6512H1.24404C1.02219 11.6511 0.804659 11.7125 0.615602 11.8286C0.426544 11.9446 0.273363 12.1108 0.173075 12.3087C0.0727863 12.5066 0.0293158 12.7284 0.047492 12.9495C0.0656682 13.1706 0.144779 13.3823 0.276038 13.5612L2.42404 16.4932C2.53548 16.6453 2.6812 16.769 2.84938 16.8543C3.01756 16.9396 3.20347 16.984 3.39204 16.984C3.5806 16.984 3.76651 16.9396 3.93469 16.8543C4.10288 16.769 4.2486 16.6453 4.36004 16.4932L6.50804 13.5612C6.6393 13.3823 6.71841 13.1706 6.73659 12.9495C6.75476 12.7284 6.71129 12.5066 6.611 12.3087C6.51071 12.1108 6.35753 11.9446 6.16848 11.8286C5.97942 11.7125 5.76188 11.6511 5.54004 11.6512" fill="#1B2125"/>
</svg>
