<?xml version="1.0" encoding="utf-8"?>
<!-- Generator: Adobe Illustrator 27.0.1, SVG Export Plug-In . SVG Version: 6.00 Build 0)  -->
<svg version="1.1" id="Layer_1" xmlns="http://www.w3.org/2000/svg" xmlns:xlink="http://www.w3.org/1999/xlink" x="0px" y="0px"
	 width="120px" height="120px" viewBox="0 0 120 120" style="enable-background:new 0 0 120 120;" xml:space="preserve">
<style type="text/css">
	.st0{fill:none;stroke:#FFFFFF;stroke-dasharray:4,4;}
	.st1{fill-rule:evenodd;clip-rule:evenodd;fill:#FFFFFF;}
</style>
<g>
	<g>
		<rect x="0.5" y="0.5" shape-rendering="crispEdges" class="st0" width="119" height="119"/>
	</g>
	<path class="st1" d="M79.5,60c0,10.77-8.73,19.5-19.5,19.5S40.5,70.77,40.5,60S49.23,40.5,60,40.5S79.5,49.23,79.5,60z M81,60
		c0,11.6-9.4,21-21,21s-21-9.4-21-21s9.4-21,21-21S81,48.4,81,60z M66.24,45.29c-0.39-0.13-0.82,0.08-0.95,0.47
		c-0.13,0.39,0.08,0.82,0.47,0.95c2.81,0.94,5.64,3.29,7.05,6.58c0.16,0.38,0.6,0.56,0.98,0.39c0.38-0.16,0.56-0.6,0.39-0.98
		C72.6,49,69.43,46.35,66.24,45.29z M60,66.5c3.59,0,6.5-2.91,6.5-6.5s-2.91-6.5-6.5-6.5s-6.5,2.91-6.5,6.5S56.41,66.5,60,66.5z
		 M60,68c4.42,0,8-3.58,8-8s-3.58-8-8-8c-4.42,0-8,3.58-8,8S55.58,68,60,68z M60,62c1.1,0,2-0.9,2-2s-0.9-2-2-2s-2,0.9-2,2
		S58.9,62,60,62z"/>
</g>
</svg>
