<svg width="150" height="160" viewBox="0 0 150 160" fill="none" xmlns="http://www.w3.org/2000/svg">
<g filter="url(#filter0_d_156_264)">
<rect x="-0.5" y="0.5" width="119" height="119" transform="matrix(-1 0 0 1 119 10)" stroke="white" stroke-dasharray="4 4" shape-rendering="crispEdges"/>
</g>
<path fill-rule="evenodd" clip-rule="evenodd" d="M79.5 70C79.5 80.7696 70.7696 89.5 60 89.5C49.2304 89.5 40.5 80.7696 40.5 70C40.5 59.2304 49.2304 50.5 60 50.5C70.7696 50.5 79.5 59.2304 79.5 70ZM81 70C81 81.598 71.598 91 60 91C48.402 91 39 81.598 39 70C39 58.402 48.402 49 60 49C71.598 49 81 58.402 81 70ZM66.2372 55.2885C65.8442 55.1575 65.4195 55.3699 65.2885 55.7628C65.1575 56.1558 65.3699 56.5805 65.7628 56.7115C68.5684 57.6467 71.3986 60.0007 72.8106 63.2954C72.9738 63.6762 73.4147 63.8525 73.7954 63.6894C74.1762 63.5262 74.3525 63.0853 74.1894 62.7046C72.6014 58.9993 69.4316 56.3533 66.2372 55.2885ZM60 76.5C63.5899 76.5 66.5 73.5899 66.5 70C66.5 66.4101 63.5899 63.5 60 63.5C56.4101 63.5 53.5 66.4101 53.5 70C53.5 73.5899 56.4101 76.5 60 76.5ZM60 78C64.4183 78 68 74.4183 68 70C68 65.5817 64.4183 62 60 62C55.5817 62 52 65.5817 52 70C52 74.4183 55.5817 78 60 78ZM60 72C61.1046 72 62 71.1046 62 70C62 68.8954 61.1046 68 60 68C58.8954 68 58 68.8954 58 70C58 71.1046 58.8954 72 60 72Z" fill="white"/>
<defs>
<filter id="filter0_d_156_264" x="0" y="0" width="160" height="160" filterUnits="userSpaceOnUse" color-interpolation-filters="sRGB">
<feFlood flood-opacity="0" result="BackgroundImageFix"/>
<feColorMatrix in="SourceAlpha" type="matrix" values="0 0 0 0 0 0 0 0 0 0 0 0 0 0 0 0 0 0 127 0" result="hardAlpha"/>
<feOffset dx="20" dy="10"/>
<feGaussianBlur stdDeviation="10"/>
<feComposite in2="hardAlpha" operator="out"/>
<feColorMatrix type="matrix" values="0 0 0 0 0 0 0 0 0 0 0 0 0 0 0 0 0 0 0.15 0"/>
<feBlend mode="normal" in2="BackgroundImageFix" result="effect1_dropShadow_156_264"/>
<feBlend mode="normal" in="SourceGraphic" in2="effect1_dropShadow_156_264" result="shape"/>
</filter>
</defs>
</svg>
