<svg width="24" height="24" viewBox="0 0 24 24" fill="none" xmlns="http://www.w3.org/2000/svg">
<path d="M11.9929 2.5C6.4611 2.5 2 6.16793 2 10.6208C2 13.5112 3.85582 16.0421 6.63954 17.4873L5.69736 21.1039C5.67959 21.1581 5.67686 21.2163 5.68947 21.272C5.70208 21.3277 5.72952 21.3787 5.76874 21.4193C5.82592 21.4711 5.89949 21.4998 5.97573 21.5C6.03895 21.4948 6.09892 21.4691 6.14704 21.4267L10.2013 18.617C10.7997 18.7019 11.403 18.746 12.0071 18.749C17.5318 18.749 22 15.0811 22 10.6208C22 6.16059 17.5175 2.5 11.9929 2.5Z" fill="#392020"/>
</svg>
