<svg width="48" height="48" viewBox="0 0 48 48" fill="none" xmlns="http://www.w3.org/2000/svg">
<g opacity="0.6">
<path d="M39.9499 33.9503L27.5499 25.6503C26.9499 25.2503 26.6499 24.7003 26.6499 24.0003C26.6499 23.3003 26.9499 22.7503 27.5499 22.3503L39.9499 14.0503C40.6166 13.6169 41.2999 13.5916 41.9999 13.9743C42.6999 14.3583 43.0499 14.9503 43.0499 15.7503V32.2503C43.0499 33.0503 42.6999 33.6503 41.9999 34.0503C41.2999 34.4503 40.6166 34.4169 39.9499 33.9503ZM19.9499 33.9503L7.5499 25.6503C6.9499 25.2503 6.6499 24.7003 6.6499 24.0003C6.6499 23.3003 6.9499 22.7503 7.5499 22.3503L19.9499 14.0503C20.6166 13.6169 21.2999 13.5916 21.9999 13.9743C22.6999 14.3583 23.0499 14.9503 23.0499 15.7503V32.2503C23.0499 33.0503 22.6999 33.6503 21.9999 34.0503C21.2999 34.4503 20.6166 34.4169 19.9499 33.9503Z" fill="#B3B3B3"/>
</g>
</svg>
