<svg width="24" height="24" viewBox="0 0 24 24" fill="none" xmlns="http://www.w3.org/2000/svg">
<path d="M0.075 5.3325C0.226227 4.66986 0.597983 4.07822 1.12938 3.65446C1.66078 3.23071 2.32033 2.99995 3 3H21C21.6797 2.99995 22.3392 3.23071 22.8706 3.65446C23.402 4.07822 23.7738 4.66986 23.925 5.3325L17.625 9.1845C17.6006 9.13147 17.5751 9.07896 17.5485 9.027C16.5495 7.077 14.004 6.1515 12 7.152C9.996 6.1515 7.4505 7.077 6.4515 9.027L6.3765 9.1845L0.075 5.3325ZM17.376 13.365C17.3407 13.4351 17.3042 13.5046 17.2665 13.5735L24 17.7V7.0455L17.9955 10.716C18.036 11.559 17.835 12.4605 17.376 13.3665V13.365ZM11.1735 17.94C9.6015 16.9005 8.4135 15.855 7.5765 14.817L0.285 19.284C0.528384 19.7979 0.912825 20.2321 1.39351 20.5359C1.87421 20.8398 2.43135 21.0007 3 21H21C21.5681 21.0001 22.1246 20.8389 22.6048 20.5351C23.0849 20.2314 23.4688 19.7975 23.712 19.284L16.425 14.817C15.5865 15.855 14.4 16.9005 12.828 17.9385L12 18.486L11.1735 17.9385V17.94ZM6.624 13.365C6.165 12.4605 5.964 11.559 6.0045 10.716L0 7.0455V17.7015L6.735 13.5735C6.69686 13.5051 6.65986 13.4361 6.624 13.3665V13.365Z" fill="white"/>
<path d="M12.0001 8.98942C14.4961 6.42292 20.7376 10.9139 12.0001 16.6874C3.2626 10.9124 9.5041 6.42292 12.0001 8.98942Z" fill="white"/>
</svg>
