<svg width="24" height="25" viewBox="0 0 24 25" fill="none" xmlns="http://www.w3.org/2000/svg">
<path fill-rule="evenodd" clip-rule="evenodd" d="M17.207 10.715L11.624 16.299C11.4359 16.4858 11.1816 16.5906 10.9165 16.5906C10.6514 16.5906 10.3971 16.4858 10.209 16.299L6.793 12.883C6.70016 12.7902 6.62651 12.6799 6.57626 12.5586C6.52601 12.4373 6.50015 12.3073 6.50015 12.176C6.50015 11.9108 6.60549 11.6565 6.793 11.469C6.98051 11.2815 7.23482 11.1762 7.5 11.1762C7.76518 11.1762 8.01949 11.2815 8.207 11.469L10.916 14.178L15.793 9.301C15.8858 9.20816 15.9961 9.13451 16.1174 9.08426C16.2387 9.03401 16.3687 9.00815 16.5 9.00815C16.6313 9.00815 16.7613 9.03401 16.8826 9.08426C17.0039 9.13451 17.1142 9.20816 17.207 9.301C17.2998 9.39384 17.3735 9.50407 17.4237 9.62537C17.474 9.74668 17.4998 9.8767 17.4998 10.008C17.4998 10.1393 17.474 10.2693 17.4237 10.3906C17.3735 10.5119 17.2998 10.6222 17.207 10.715M12 1.5C5.925 1.5 1 6.425 1 12.5C1 18.575 5.925 23.5 12 23.5C18.075 23.5 23 18.575 23 12.5C23 6.425 18.075 1.5 12 1.5Z" fill="#1B2125"/>
</svg>
