<svg width="84" height="62" viewBox="0 0 84 62" fill="none" xmlns="http://www.w3.org/2000/svg">
<path d="M23.9839 32.9361C23.5999 32.9361 23.1092 32.9361 22.5119 32.9361C21.9145 32.9361 21.4666 32.9148 21.1679 32.8721L22.0639 29.2881H23.8559C26.8852 29.2881 29.2745 28.7335 31.0239 27.6241C32.8159 26.4721 34.1172 25.0428 34.9279 23.3361C35.7385 21.5868 36.1439 19.8588 36.1439 18.1521C36.1439 16.1468 35.6532 14.4828 34.6719 13.1601C33.6905 11.7948 32.3252 10.7708 30.5759 10.0881C28.8265 9.40547 26.7786 9.06414 24.4319 9.06414C22.6399 9.06414 20.8052 9.32014 18.9279 9.83214C17.0932 10.3015 15.3652 11.0695 13.7439 12.1361C12.1226 13.2028 10.8212 14.5895 9.83988 16.2961C8.85855 18.0028 8.36788 20.0935 8.36788 22.5681C8.36788 23.6348 8.49588 24.6161 8.75188 25.5121C9.00788 26.4081 9.43455 27.4535 10.0319 28.6481C9.56255 29.0321 9.02922 29.3308 8.43188 29.5441C7.83455 29.7148 7.21588 29.8001 6.57588 29.8001C5.46655 29.8001 4.46388 29.5015 3.56788 28.9041C2.71455 28.3068 2.05322 27.4748 1.58388 26.4081C1.11455 25.2988 0.879883 24.0401 0.879883 22.6321C0.879883 20.2001 1.47722 17.9601 2.67188 15.9121C3.90922 13.8215 5.61588 11.9868 7.79188 10.4081C10.0106 8.82947 12.6132 7.59214 15.5999 6.69614C18.6292 5.80014 21.9145 5.35214 25.4559 5.35214C28.2292 5.35214 30.7252 5.6508 32.9439 6.24814C35.1626 6.80281 37.0612 7.63481 38.6399 8.74414C40.2186 9.81081 41.4346 11.1335 42.2879 12.7121C43.1412 14.2481 43.5679 16.0188 43.5679 18.0241C43.5679 20.2428 43.0559 22.2695 42.0319 24.1041C41.0079 25.9388 39.5786 27.5175 37.7439 28.8401C35.9519 30.1201 33.8612 31.1228 31.4719 31.8481C29.1252 32.5735 26.6292 32.9361 23.9839 32.9361ZM13.2319 49.8961C12.5919 49.8961 11.9305 49.7895 11.2479 49.5761C10.5652 49.3628 10.0106 49.0215 9.58388 48.5521C10.0532 48.1681 10.4799 47.6561 10.8639 47.0161C11.2479 46.3761 11.5892 45.6295 11.8879 44.7761C12.1866 43.9228 12.4212 43.0055 12.5919 42.0241L17.2639 18.3441C17.5626 16.9361 17.9466 15.7628 18.4159 14.8241C18.9279 13.8855 19.5892 13.1815 20.3999 12.7121C21.2106 12.2001 22.2132 11.9441 23.4079 11.9441C24.6452 11.9441 25.6052 12.2001 26.2879 12.7121C27.0132 13.1815 27.4399 13.7575 27.5679 14.4401C26.5012 14.9521 25.7759 15.7415 25.3919 16.8081C25.0506 17.8321 24.7519 18.9415 24.4959 20.1361L19.5039 44.5201C19.2906 45.7148 18.8852 46.7175 18.2879 47.5281C17.6905 48.2961 16.9652 48.8721 16.1119 49.2561C15.2586 49.6828 14.2985 49.8961 13.2319 49.8961Z" fill="white"/>
<path d="M47.2554 50.2801C45.89 50.2801 44.802 49.8961 43.9914 49.1281C43.2234 48.3601 42.8394 47.2935 42.8394 45.9281C42.8394 45.4588 42.882 44.9041 42.9674 44.2641C43.0527 43.6241 43.1594 42.8348 43.2874 41.8961C43.458 40.9575 43.6927 39.7841 43.9914 38.3761C44.2901 36.9681 44.6314 35.2828 45.0154 33.3201C45.3994 31.3575 45.8687 29.0321 46.4234 26.3441C46.9781 23.6561 47.618 20.5841 48.3434 17.1281C48.7701 14.6961 49.1327 12.3281 49.4314 10.0241C49.7301 7.67747 49.8794 5.71481 49.8794 4.13614C49.8794 3.62414 49.8581 3.17614 49.8154 2.79214C49.7727 2.36547 49.7087 1.98147 49.6234 1.64014C50.05 1.38414 50.562 1.1708 51.1594 1.00014C51.7567 0.829473 52.3754 0.744141 53.0154 0.744141C54.1247 0.744141 55.1487 1.08547 56.0874 1.76814C57.0687 2.40814 57.5594 3.56014 57.5594 5.22414C57.5594 5.56547 57.474 6.24814 57.3034 7.27214C57.1327 8.29614 56.9194 9.49081 56.6634 10.8561C56.4074 12.1788 56.1301 13.5655 55.8314 15.0161C55.5754 16.4241 55.3407 17.7041 55.1274 18.8561C54.1034 23.8055 53.2714 27.8588 52.6314 31.0161C51.9914 34.1308 51.4794 36.5841 51.0954 38.3761C50.7541 40.1681 50.498 41.4908 50.3274 42.3441C50.1994 43.1975 50.1141 43.7948 50.0714 44.1361C50.0287 44.4775 50.0074 44.7761 50.0074 45.0321C50.0074 45.6721 50.1567 46.1841 50.4554 46.5681C50.7967 46.9521 51.2874 47.1655 51.9274 47.2081C51.7994 47.9335 51.4794 48.5308 50.9674 49.0001C50.498 49.4268 49.9434 49.7468 49.3034 49.9601C48.6634 50.1735 47.9807 50.2801 47.2554 50.2801Z" fill="white"/>
<path d="M62.4964 61.8001C59.5097 61.8001 57.2271 61.1388 55.6484 59.8161C54.0697 58.4935 53.2804 56.5948 53.2804 54.1201C53.2804 52.0295 53.9417 50.0668 55.2644 48.2321C56.5444 46.3548 58.3791 44.6268 60.7684 43.0481C63.2004 41.4268 66.1017 39.9975 69.4724 38.7601L72.1604 41.4481C68.9604 42.4295 66.4857 43.6455 64.7364 45.0961C62.9871 46.5041 61.771 47.9761 61.0884 49.5121C60.4057 51.0908 60.0644 52.5841 60.0644 53.9921C60.0644 55.4001 60.3631 56.4455 60.9604 57.1281C61.6004 57.8108 62.4964 58.1521 63.6484 58.1521C65.3124 58.1521 66.7417 57.5548 67.9364 56.3601C69.1311 55.1655 70.0484 53.6508 70.6884 51.8161C71.3284 49.9815 71.6484 48.1468 71.6484 46.3121C71.6484 44.4775 71.3284 42.9201 70.6884 41.6401C70.091 40.3601 69.1524 39.4001 67.8724 38.7601C66.5924 38.0775 64.9924 37.7361 63.0724 37.7361C62.6457 37.7361 62.1977 37.7788 61.7284 37.8641C61.259 37.9068 60.875 37.9708 60.5764 38.0561L65.5044 33.7681C68.4057 33.7681 70.8377 34.2801 72.8004 35.3041C74.7631 36.3281 76.2351 37.7148 77.2164 39.4641C78.1977 41.1708 78.6884 43.1121 78.6884 45.2881C78.6884 47.4215 78.2831 49.4695 77.4724 51.4321C76.7044 53.4375 75.5951 55.2081 74.1444 56.7441C72.6937 58.3228 70.9657 59.5601 68.9604 60.4561C66.9977 61.3521 64.843 61.8001 62.4964 61.8001ZM60.5764 38.0561C60.107 37.8428 59.7657 37.6081 59.5524 37.3521C59.3391 37.0535 59.2324 36.7761 59.2324 36.5201C59.2324 36.0935 59.3177 35.7521 59.4884 35.4961C59.7017 35.1975 60.0217 34.8561 60.4484 34.4721L75.4884 22.1201C74.5924 21.9495 73.5257 21.8001 72.2884 21.6721C71.051 21.5441 69.8351 21.4375 68.6404 21.3521C67.4457 21.2241 66.4644 21.1601 65.6964 21.1601C64.4591 21.1601 63.4564 21.3095 62.6884 21.6081C61.9204 21.8641 61.2377 22.3335 60.6404 23.0161C60.2564 22.3761 59.9577 21.7361 59.7444 21.0961C59.5311 20.4561 59.4244 19.7948 59.4244 19.1121C59.4244 17.6188 60.0431 16.5735 61.2804 15.9761C62.5604 15.3788 64.0964 15.0801 65.8884 15.0801C67.2537 15.0801 68.6404 15.2081 70.0484 15.4641C71.4991 15.6775 72.9284 15.9121 74.3364 16.1681C75.7444 16.4241 77.1311 16.5521 78.4964 16.5521C79.9897 16.5521 81.1844 16.3175 82.0804 15.8481C82.4644 16.2748 82.7204 16.7228 82.8484 17.1921C83.0191 17.6615 83.1044 18.1735 83.1044 18.7281C83.1044 19.3255 82.9124 19.9868 82.5284 20.7121C82.1871 21.4375 81.6111 22.1201 80.8004 22.7601L65.8244 34.5361L60.5764 38.0561Z" fill="white"/>
</svg>
