<svg width="47" height="32" viewBox="0 0 47 32" fill="none" xmlns="http://www.w3.org/2000/svg">
<path d="M11.992 16.968C11.8 16.968 11.5547 16.968 11.256 16.968C10.9573 16.968 10.7333 16.9573 10.584 16.936L11.032 15.144H11.928C13.4427 15.144 14.6373 14.8667 15.512 14.312C16.408 13.736 17.0587 13.0213 17.464 12.168C17.8693 11.2933 18.072 10.4293 18.072 9.576C18.072 8.57333 17.8267 7.74133 17.336 7.08C16.8453 6.39733 16.1627 5.88533 15.288 5.544C14.4133 5.20267 13.3893 5.032 12.216 5.032C11.32 5.032 10.4027 5.16 9.464 5.416C8.54667 5.65067 7.68267 6.03467 6.872 6.568C6.06133 7.10133 5.41067 7.79467 4.92 8.648C4.42933 9.50133 4.184 10.5467 4.184 11.784C4.184 12.3173 4.248 12.808 4.376 13.256C4.504 13.704 4.71733 14.2267 5.016 14.824C4.78133 15.016 4.51467 15.1653 4.216 15.272C3.91733 15.3573 3.608 15.4 3.288 15.4C2.73333 15.4 2.232 15.2507 1.784 14.952C1.35733 14.6533 1.02667 14.2373 0.792 13.704C0.557333 13.1493 0.44 12.52 0.44 11.816C0.44 10.6 0.738667 9.48 1.336 8.456C1.95467 7.41067 2.808 6.49333 3.896 5.704C5.00533 4.91467 6.30667 4.296 7.8 3.848C9.31467 3.4 10.9573 3.176 12.728 3.176C14.1147 3.176 15.3627 3.32533 16.472 3.624C17.5813 3.90133 18.5307 4.31733 19.32 4.872C20.1093 5.40533 20.7173 6.06667 21.144 6.856C21.5707 7.624 21.784 8.50933 21.784 9.512C21.784 10.6213 21.528 11.6347 21.016 12.552C20.504 13.4693 19.7893 14.2587 18.872 14.92C17.976 15.56 16.9307 16.0613 15.736 16.424C14.5627 16.7867 13.3147 16.968 11.992 16.968ZM6.616 25.448C6.296 25.448 5.96533 25.3947 5.624 25.288C5.28267 25.1813 5.00533 25.0107 4.792 24.776C5.02667 24.584 5.24 24.328 5.432 24.008C5.624 23.688 5.79467 23.3147 5.944 22.888C6.09333 22.4613 6.21067 22.0027 6.296 21.512L8.632 9.672C8.78133 8.968 8.97333 8.38133 9.208 7.912C9.464 7.44267 9.79467 7.09067 10.2 6.856C10.6053 6.6 11.1067 6.472 11.704 6.472C12.3227 6.472 12.8027 6.6 13.144 6.856C13.5067 7.09067 13.72 7.37867 13.784 7.72C13.2507 7.976 12.888 8.37067 12.696 8.904C12.5253 9.416 12.376 9.97067 12.248 10.568L9.752 22.76C9.64533 23.3573 9.44267 23.8587 9.144 24.264C8.84533 24.648 8.48267 24.936 8.056 25.128C7.62933 25.3413 7.14933 25.448 6.616 25.448ZM23.6278 25.64C22.9451 25.64 22.4011 25.448 21.9958 25.064C21.6118 24.68 21.4198 24.1467 21.4198 23.464C21.4198 23.2293 21.4411 22.952 21.4838 22.632C21.5264 22.312 21.5798 21.9173 21.6438 21.448C21.7291 20.9787 21.8464 20.392 21.9958 19.688C22.1451 18.984 22.3158 18.1413 22.5078 17.16C22.6998 16.1787 22.9344 15.016 23.2118 13.672C23.4891 12.328 23.8091 10.792 24.1718 9.064C24.3851 7.848 24.5664 6.664 24.7158 5.512C24.8651 4.33867 24.9398 3.35733 24.9398 2.568C24.9398 2.312 24.9291 2.088 24.9078 1.896C24.8864 1.68266 24.8544 1.49067 24.8118 1.32C25.0251 1.192 25.2811 1.08533 25.5798 0.999998C25.8784 0.914666 26.1878 0.872 26.5078 0.872C27.0624 0.872 27.5744 1.04267 28.0438 1.384C28.5344 1.704 28.7798 2.28 28.7798 3.112C28.7798 3.28267 28.7371 3.624 28.6518 4.136C28.5664 4.648 28.4598 5.24533 28.3318 5.928C28.2038 6.58933 28.0651 7.28267 27.9158 8.008C27.7878 8.712 27.6704 9.352 27.5638 9.928C27.0518 12.4027 26.6358 14.4293 26.3158 16.008C25.9958 17.5653 25.7398 18.792 25.5478 19.688C25.3771 20.584 25.2491 21.2453 25.1638 21.672C25.0998 22.0987 25.0571 22.3973 25.0358 22.568C25.0144 22.7387 25.0038 22.888 25.0038 23.016C25.0038 23.336 25.0784 23.592 25.2278 23.784C25.3984 23.976 25.6438 24.0827 25.9638 24.104C25.8998 24.4667 25.7398 24.7653 25.4838 25C25.2491 25.2133 24.9718 25.3733 24.6518 25.48C24.3318 25.5867 23.9904 25.64 23.6278 25.64ZM31.2483 31.4C29.7549 31.4 28.6136 31.0693 27.8243 30.408C27.0349 29.7467 26.6403 28.7973 26.6403 27.56C26.6403 26.5147 26.9709 25.5333 27.6323 24.616C28.2723 23.6773 29.1896 22.8133 30.3843 22.024C31.6003 21.2133 33.0509 20.4987 34.7363 19.88L36.0803 21.224C34.4803 21.7147 33.2429 22.3227 32.3683 23.048C31.4936 23.752 30.8856 24.488 30.5443 25.256C30.2029 26.0453 30.0323 26.792 30.0323 27.496C30.0323 28.2 30.1816 28.7227 30.4803 29.064C30.8003 29.4053 31.2483 29.576 31.8243 29.576C32.6563 29.576 33.3709 29.2773 33.9683 28.68C34.5656 28.0827 35.0243 27.3253 35.3443 26.408C35.6643 25.4907 35.8243 24.5733 35.8243 23.656C35.8243 22.7387 35.6643 21.96 35.3443 21.32C35.0456 20.68 34.5763 20.2 33.9363 19.88C33.2963 19.5387 32.4963 19.368 31.5363 19.368C31.3229 19.368 31.0989 19.3893 30.8643 19.432C30.6296 19.4533 30.4376 19.4853 30.2883 19.528L32.7523 17.384C34.2029 17.384 35.4189 17.64 36.4003 18.152C37.3816 18.664 38.1176 19.3573 38.6083 20.232C39.0989 21.0853 39.3443 22.056 39.3443 23.144C39.3443 24.2107 39.1416 25.2347 38.7363 26.216C38.3523 27.2187 37.7976 28.104 37.0723 28.872C36.3469 29.6613 35.4829 30.28 34.4803 30.728C33.4989 31.176 32.4216 31.4 31.2483 31.4ZM30.2883 19.528C30.0536 19.4213 29.8829 19.304 29.7763 19.176C29.6696 19.0267 29.6163 18.888 29.6163 18.76C29.6163 18.5467 29.6589 18.376 29.7443 18.248C29.8509 18.0987 30.0109 17.928 30.2243 17.736L37.7443 11.56C37.2963 11.4747 36.7629 11.4 36.1443 11.336C35.5256 11.272 34.9176 11.2187 34.3203 11.176C33.7229 11.112 33.2323 11.08 32.8483 11.08C32.2296 11.08 31.7283 11.1547 31.3443 11.304C30.9603 11.432 30.6189 11.6667 30.3203 12.008C30.1283 11.688 29.9789 11.368 29.8723 11.048C29.7656 10.728 29.7123 10.3973 29.7123 10.056C29.7123 9.30933 30.0216 8.78667 30.6403 8.488C31.2803 8.18933 32.0483 8.04 32.9443 8.04C33.6269 8.04 34.3203 8.104 35.0243 8.232C35.7496 8.33867 36.4643 8.456 37.1683 8.584C37.8723 8.712 38.5656 8.776 39.2483 8.776C39.9949 8.776 40.5923 8.65867 41.0403 8.424C41.2323 8.63733 41.3603 8.86133 41.4243 9.096C41.5096 9.33067 41.5523 9.58667 41.5523 9.864C41.5523 10.1627 41.4563 10.4933 41.2643 10.856C41.0936 11.2187 40.8056 11.56 40.4003 11.88L32.9123 17.768L30.2883 19.528ZM43.879 25.704C43.1963 25.704 42.631 25.5333 42.183 25.192C41.735 24.872 41.511 24.3813 41.511 23.72C41.511 23.016 41.7457 22.504 42.215 22.184C42.7057 21.8427 43.2923 21.672 43.975 21.672C44.6577 21.672 45.2123 21.8427 45.639 22.184C46.087 22.504 46.311 22.9947 46.311 23.656C46.311 24.3387 46.0763 24.8507 45.607 25.192C45.1377 25.5333 44.5617 25.704 43.879 25.704Z" fill="url(#paint0_linear_148_515)"/>
<defs>
<linearGradient id="paint0_linear_148_515" x1="24" y1="-11" x2="24" y2="34" gradientUnits="userSpaceOnUse">
<stop stop-color="#1B2125"/>
<stop offset="0.328125" stop-color="#2B3238"/>
<stop offset="1" stop-color="#4D545F"/>
</linearGradient>
</defs>
</svg>
