<svg width="48" height="48" viewBox="0 0 48 48" fill="none" xmlns="http://www.w3.org/2000/svg">
<path fill-rule="evenodd" clip-rule="evenodd" d="M43.5 24C43.5 34.7696 34.7696 43.5 24 43.5C13.2304 43.5 4.5 34.7696 4.5 24C4.5 13.2304 13.2304 4.5 24 4.5C34.7696 4.5 43.5 13.2304 43.5 24ZM45 24C45 35.598 35.598 45 24 45C12.402 45 3 35.598 3 24C3 12.402 12.402 3 24 3C35.598 3 45 12.402 45 24ZM30.2372 9.28849C29.8442 9.1575 29.4195 9.36987 29.2885 9.76283C29.1575 10.1558 29.3699 10.5805 29.7628 10.7115C32.5684 11.6467 35.3986 14.0007 36.8106 17.2954C36.9738 17.6762 37.4147 17.8525 37.7954 17.6894C38.1762 17.5262 38.3525 17.0853 38.1894 16.7046C36.6014 12.9993 33.4316 10.3533 30.2372 9.28849ZM24 30.5C27.5899 30.5 30.5 27.5899 30.5 24C30.5 20.4101 27.5899 17.5 24 17.5C20.4101 17.5 17.5 20.4101 17.5 24C17.5 27.5899 20.4101 30.5 24 30.5ZM24 32C28.4183 32 32 28.4183 32 24C32 19.5817 28.4183 16 24 16C19.5817 16 16 19.5817 16 24C16 28.4183 19.5817 32 24 32ZM24 26C25.1046 26 26 25.1046 26 24C26 22.8954 25.1046 22 24 22C22.8954 22 22 22.8954 22 24C22 25.1046 22.8954 26 24 26Z" fill="white"/>
</svg>
