<svg width="56" height="56" viewBox="0 0 56 56" fill="none" xmlns="http://www.w3.org/2000/svg">
<g clip-path="url(#clip0_148_3979)">
<path fill-rule="evenodd" clip-rule="evenodd" d="M50.6658 30.5382L18.7738 51.3165C18.4217 51.546 18.0141 51.6761 17.5942 51.6931C17.1742 51.7101 16.7574 51.6134 16.3879 51.4131C16.0184 51.2128 15.7098 50.9164 15.4948 50.5552C15.2799 50.194 15.1664 49.7815 15.1665 49.3612V7.80454C15.1664 7.38423 15.2799 6.97169 15.4948 6.61053C15.7098 6.24936 16.0184 5.95298 16.3879 5.75268C16.7574 5.55238 17.1742 5.45562 17.5942 5.47261C18.0141 5.4896 18.4217 5.61971 18.7738 5.8492L50.6658 26.6275C50.9913 26.8395 51.2587 27.1293 51.4439 27.4708C51.629 27.8122 51.7259 28.1945 51.7259 28.5829C51.7259 28.9713 51.629 29.3535 51.4439 29.695C51.2587 30.0364 50.9913 30.3263 50.6658 30.5382Z" fill="#B3B3B3"/>
</g>
<defs>
<clipPath id="clip0_148_3979">
<rect width="56" height="56" fill="white"/>
</clipPath>
</defs>
</svg>
