<svg width="28" height="28" viewBox="0 0 28 28" fill="none" xmlns="http://www.w3.org/2000/svg">
<path fill-rule="evenodd" clip-rule="evenodd" d="M24.4613 14.4224C24.0956 14.3587 23.7196 14.4429 23.4159 14.6564C23.1122 14.87 22.9058 15.1954 22.842 15.5611C22.4788 17.648 21.3896 19.5393 19.7669 20.9009C18.1442 22.2625 16.0924 23.0067 13.9742 23.0021C9.01117 23.0021 4.97334 18.9642 4.97334 14.0001C4.97334 9.03706 9.01117 4.99923 13.9742 4.99923C16.2305 4.99923 18.3527 5.83223 20.0117 7.33723L18.8543 8.49456C18.7029 8.64539 18.5963 8.83527 18.5464 9.04308C18.4965 9.25088 18.5052 9.46846 18.5716 9.67161C18.638 9.87475 18.7594 10.0555 18.9224 10.1937C19.0854 10.332 19.2836 10.4222 19.4948 10.4546L24.4088 11.2129C24.5884 11.2406 24.7719 11.2255 24.9445 11.1689C25.1171 11.1124 25.2739 11.0159 25.4022 10.8874C25.5306 10.7588 25.6268 10.6018 25.683 10.4291C25.7393 10.2564 25.754 10.0729 25.726 9.89339L24.9688 4.98056C24.9363 4.76944 24.8459 4.57147 24.7077 4.40859C24.5695 4.24572 24.3889 4.12432 24.1859 4.05786C23.9829 3.9914 23.7654 3.98248 23.5577 4.03208C23.3499 4.08169 23.1599 4.18789 23.0088 4.33889L21.9915 5.35739C19.8172 3.32461 16.9507 2.19547 13.9742 2.19923C7.46767 2.19923 2.17334 7.49356 2.17334 14.0001C2.17334 20.5077 7.46767 25.8009 13.9742 25.8009C19.7235 25.8009 24.6118 21.6966 25.6 16.0417C25.6637 15.676 25.5795 15.3 25.366 14.9963C25.1524 14.6926 24.827 14.4862 24.4613 14.4224Z" fill="white"/>
</svg>
