<svg width="48" height="48" viewBox="0 0 48 48" fill="none" xmlns="http://www.w3.org/2000/svg">
<g opacity="0.6">
<path d="M8.0501 33.9503L20.4501 25.6503C21.0501 25.2503 21.3501 24.7003 21.3501 24.0003C21.3501 23.3003 21.0501 22.7503 20.4501 22.3503L8.0501 14.0503C7.38343 13.6169 6.7001 13.5916 6.0001 13.9743C5.3001 14.3583 4.9501 14.9503 4.9501 15.7503V32.2503C4.9501 33.0503 5.3001 33.6503 6.0001 34.0503C6.7001 34.4503 7.38343 34.4169 8.0501 33.9503ZM28.0501 33.9503L40.4501 25.6503C41.0501 25.2503 41.3501 24.7003 41.3501 24.0003C41.3501 23.3003 41.0501 22.7503 40.4501 22.3503L28.0501 14.0503C27.3834 13.6169 26.7001 13.5916 26.0001 13.9743C25.3001 14.3583 24.9501 14.9503 24.9501 15.7503V32.2503C24.9501 33.0503 25.3001 33.6503 26.0001 34.0503C26.7001 34.4503 27.3834 34.4169 28.0501 33.9503Z" fill="#B3B3B3"/>
</g>
</svg>
