<svg width="24" height="25" viewBox="0 0 24 25" fill="none" xmlns="http://www.w3.org/2000/svg">
<path fill-rule="evenodd" clip-rule="evenodd" d="M16.003 11.168C15.7647 11.1736 15.5277 11.1314 15.3059 11.0441C15.0841 10.9567 14.8821 10.8259 14.7116 10.6593C14.5411 10.4927 14.4057 10.2937 14.3132 10.074C14.2207 9.85432 14.1732 9.61835 14.1732 9.37999C14.1733 9.14163 14.221 8.90568 14.3136 8.68604C14.4062 8.46639 14.5417 8.26747 14.7123 8.10097C14.8829 7.93448 15.085 7.80377 15.3069 7.71653C15.5287 7.6293 15.7657 7.5873 16.004 7.593C16.4708 7.60417 16.9146 7.79747 17.2407 8.13158C17.5669 8.46569 17.7494 8.9141 17.7492 9.38099C17.7491 9.84787 17.5663 10.2962 17.24 10.6301C16.9137 10.964 16.4698 11.1571 16.003 11.168ZM14.279 17.28H8.255C8.04261 17.2803 7.83407 17.2233 7.6513 17.1152C7.46853 17.007 7.31828 16.8515 7.21637 16.6652C7.11445 16.4789 7.06462 16.2685 7.07212 16.0562C7.07963 15.844 7.14418 15.6377 7.259 15.459L10.272 10.764C10.3789 10.597 10.5261 10.4595 10.7001 10.3644C10.8741 10.2692 11.0692 10.2193 11.2675 10.2193C11.4658 10.2193 11.6609 10.2692 11.8349 10.3644C12.0089 10.4595 12.1561 10.597 12.263 10.764L15.274 15.459C15.3888 15.6376 15.4533 15.8438 15.4609 16.056C15.4684 16.2682 15.4187 16.4785 15.3169 16.6648C15.2151 16.8511 15.065 17.0065 14.8823 17.1148C14.6997 17.223 14.4913 17.2801 14.279 17.28ZM19.287 2.75H4.713C4.05977 2.75 3.4333 3.00949 2.9714 3.4714C2.50949 3.9333 2.25 4.55977 2.25 5.213V19.787C2.25 20.4402 2.50949 21.0667 2.9714 21.5286C3.4333 21.9905 4.05977 22.25 4.713 22.25H19.287C19.9402 22.25 20.5667 21.9905 21.0286 21.5286C21.4905 21.0667 21.75 20.4402 21.75 19.787V5.213C21.75 4.55977 21.4905 3.9333 21.0286 3.4714C20.5667 3.00949 19.9402 2.75 19.287 2.75Z" fill="#1B2125"/>
</svg>
