<svg width="28" height="28" viewBox="0 0 28 28" fill="none" xmlns="http://www.w3.org/2000/svg">
<path fill-rule="evenodd" clip-rule="evenodd" d="M4.8043 7.23359H23.471C23.8423 7.23359 24.1984 7.08609 24.4609 6.82354C24.7235 6.56099 24.871 6.2049 24.871 5.83359C24.871 5.46229 24.7235 5.1062 24.4609 4.84364C24.1984 4.58109 23.8423 4.43359 23.471 4.43359H4.8043C4.43299 4.43359 4.0769 4.58109 3.81435 4.84364C3.5518 5.1062 3.4043 5.46229 3.4043 5.83359C3.4043 6.2049 3.5518 6.56099 3.81435 6.82354C4.0769 7.08609 4.43299 7.23359 4.8043 7.23359ZM23.471 12.6003H4.8043C4.43299 12.6003 4.0769 12.7478 3.81435 13.0103C3.5518 13.2729 3.4043 13.629 3.4043 14.0003C3.4043 14.3716 3.5518 14.7277 3.81435 14.9902C4.0769 15.2528 4.43299 15.4003 4.8043 15.4003H23.471C23.8423 15.4003 24.1984 15.2528 24.4609 14.9902C24.7235 14.7277 24.871 14.3716 24.871 14.0003C24.871 13.629 24.7235 13.2729 24.4609 13.0103C24.1984 12.7478 23.8423 12.6003 23.471 12.6003ZM23.471 20.7669H4.8043C4.62045 20.7669 4.4384 20.8031 4.26854 20.8735C4.09868 20.9439 3.94435 21.047 3.81435 21.177C3.68435 21.307 3.58122 21.4613 3.51087 21.6312C3.44051 21.801 3.4043 21.9831 3.4043 22.1669C3.4043 22.3508 3.44051 22.5328 3.51087 22.7027C3.58122 22.8725 3.68435 23.0269 3.81435 23.1569C3.94435 23.2869 4.09868 23.39 4.26854 23.4604C4.4384 23.5307 4.62045 23.5669 4.8043 23.5669H23.471C23.6548 23.5669 23.8369 23.5307 24.0067 23.4604C24.1766 23.39 24.3309 23.2869 24.4609 23.1569C24.5909 23.0269 24.694 22.8725 24.7644 22.7027C24.8348 22.5328 24.871 22.3508 24.871 22.1669C24.871 21.9831 24.8348 21.801 24.7644 21.6312C24.694 21.4613 24.5909 21.307 24.4609 21.177C24.3309 21.047 24.1766 20.9439 24.0067 20.8735C23.8369 20.8031 23.6548 20.7669 23.471 20.7669Z" fill="white"/>
</svg>
