<svg width="28" height="28" viewBox="0 0 28 28" fill="none" xmlns="http://www.w3.org/2000/svg">
<g clip-path="url(#clip0_201_2276)">
<path d="M17.4998 23.3333C17.5 23.922 17.2777 24.489 16.8774 24.9206C16.4771 25.3523 15.9285 25.6167 15.3415 25.6608L15.1665 25.6667H12.8332C12.2445 25.6669 11.6775 25.4445 11.2459 25.0443C10.8142 24.644 10.5498 24.0953 10.5057 23.5083L10.4998 23.3333H17.4998ZM13.9998 3.5C16.1173 3.49997 18.152 4.32238 19.6748 5.79375C21.1975 7.26513 22.0892 9.27044 22.1618 11.3867L22.1665 11.6667V16.058L24.2922 20.3093C24.3849 20.4948 24.4314 20.7001 24.4275 20.9074C24.4236 21.1148 24.3695 21.3181 24.2698 21.5C24.1702 21.6819 24.0279 21.8369 23.8552 21.9518C23.6825 22.0667 23.4846 22.138 23.2783 22.1597L23.1442 22.1667H4.85549C4.64801 22.1667 4.44362 22.1165 4.25981 22.0202C4.07601 21.924 3.91828 21.7846 3.80014 21.6141C3.682 21.4435 3.60698 21.2469 3.58149 21.041C3.55601 20.8351 3.58083 20.626 3.65382 20.4318L3.70749 20.3093L5.83316 16.058V11.6667C5.83316 9.50073 6.69357 7.42351 8.22512 5.89196C9.75666 4.36041 11.8339 3.5 13.9998 3.5V3.5Z" fill="white"/>
</g>
<defs>
<clipPath id="clip0_201_2276">
<rect width="28" height="28" fill="white"/>
</clipPath>
</defs>
</svg>
