<svg width="18" height="18" viewBox="0 0 18 18" fill="none" xmlns="http://www.w3.org/2000/svg">
<g clip-path="url(#clip0_148_3695)">
<circle cx="8.9999" cy="8.9999" r="8.1" fill="white"/>
<path fill-rule="evenodd" clip-rule="evenodd" d="M12.1553 11.0948C12.2249 11.1644 12.2801 11.2471 12.3178 11.338C12.3555 11.429 12.3749 11.5265 12.3749 11.625C12.3749 11.7235 12.3555 11.821 12.3178 11.912C12.2801 12.0029 12.2249 12.0856 12.1553 12.1553C12.0856 12.2249 12.0029 12.2801 11.912 12.3178C11.821 12.3555 11.7235 12.3749 11.625 12.3749C11.5265 12.3749 11.429 12.3555 11.338 12.3178C11.2471 12.2801 11.1644 12.2249 11.0948 12.1553L9 10.0605L6.90525 12.1553C6.83576 12.2251 6.75314 12.2806 6.66214 12.3184C6.57114 12.3563 6.47356 12.3758 6.375 12.3758C6.27644 12.3758 6.17886 12.3563 6.08786 12.3184C5.99686 12.2806 5.91424 12.2251 5.84475 12.1553C5.77504 12.0857 5.71974 12.003 5.682 11.912C5.64427 11.821 5.62485 11.7235 5.62485 11.625C5.62485 11.5265 5.64427 11.429 5.682 11.338C5.71974 11.247 5.77504 11.1643 5.84475 11.0948L7.9395 9L5.84475 6.90525C5.77512 6.83562 5.71988 6.75295 5.6822 6.66197C5.64451 6.57099 5.62511 6.47348 5.62511 6.375C5.62511 6.27652 5.64451 6.17901 5.6822 6.08803C5.71988 5.99705 5.77512 5.91438 5.84475 5.84475C5.91438 5.77512 5.99705 5.71988 6.08803 5.6822C6.17901 5.64451 6.27652 5.62511 6.375 5.62511C6.47348 5.62511 6.57099 5.64451 6.66197 5.6822C6.75295 5.71988 6.83562 5.77512 6.90525 5.84475L9 7.9395L11.0948 5.84475C11.1644 5.77512 11.2471 5.71988 11.338 5.6822C11.429 5.64451 11.5265 5.62511 11.625 5.62511C11.7235 5.62511 11.821 5.64451 11.912 5.6822C12.0029 5.71988 12.0856 5.77512 12.1553 5.84475C12.2249 5.91438 12.2801 5.99705 12.3178 6.08803C12.3555 6.17901 12.3749 6.27652 12.3749 6.375C12.3749 6.47348 12.3555 6.57099 12.3178 6.66197C12.2801 6.75295 12.2249 6.83562 12.1553 6.90525L10.0605 9L12.1553 11.0948ZM9 0.75C4.44375 0.75 0.75 4.44375 0.75 9C0.75 13.5562 4.44375 17.25 9 17.25C13.5562 17.25 17.25 13.5562 17.25 9C17.25 4.44375 13.5562 0.75 9 0.75Z" fill="#FF0000"/>
</g>
<defs>
<clipPath id="clip0_148_3695">
<rect width="18" height="18" fill="white"/>
</clipPath>
</defs>
</svg>
